<svg width="14" height="16" viewBox="0 0 14 16" fill="none" xmlns="http://www.w3.org/2000/svg">
<path d="M10.333 0.666992C10.5098 0.666992 10.6797 0.73728 10.8047 0.862305C10.9295 0.987237 10.9999 1.15639 11 1.33301V2H11.667C12.1973 2.00009 12.7061 2.21094 13.0811 2.58594C13.456 2.96099 13.667 3.46964 13.667 4V13.333C13.667 13.8633 13.4559 14.372 13.0811 14.7471C12.7061 15.1221 12.1973 15.3329 11.667 15.333H2.33301C1.80269 15.3329 1.29394 15.1221 0.918945 14.7471C0.544076 14.372 0.333008 13.8633 0.333008 13.333V4C0.333008 3.46964 0.543974 2.96099 0.918945 2.58594C1.29394 2.21094 1.80269 2.00009 2.33301 2H3V1.33301C3.00009 1.15639 3.07047 0.987237 3.19531 0.862305C3.32034 0.73728 3.49018 0.666992 3.66699 0.666992C3.84369 0.667078 4.01275 0.737357 4.1377 0.862305C4.26264 0.987252 4.33292 1.15631 4.33301 1.33301V2H9.66699V1.33301C9.66708 1.15631 9.73736 0.987252 9.8623 0.862305C9.98725 0.737357 10.1563 0.667078 10.333 0.666992ZM1.66699 13.333C1.66699 13.5098 1.73728 13.6797 1.8623 13.8047C1.98724 13.9295 2.15639 13.9999 2.33301 14H11.667C11.8436 13.9999 12.0128 13.9295 12.1377 13.8047C12.2627 13.6797 12.333 13.5098 12.333 13.333V7.33301H1.66699V13.333ZM7.77734 8.92285C8.05086 8.64089 8.49405 8.6409 8.76758 8.92285C9.04115 9.20508 9.04115 9.66309 8.76758 9.94531L7.99023 10.7471L8.89551 11.6807C9.16908 11.9629 9.16908 12.4209 8.89551 12.7031C8.62196 12.9849 8.17872 12.9851 7.90527 12.7031L7 11.7686L6.09473 12.7031C5.82115 12.9852 5.37705 12.9853 5.10352 12.7031C4.83005 12.4209 4.83012 11.9629 5.10352 11.6807L6.00977 10.7471L5.23242 9.94531C4.95885 9.66309 4.95885 9.20508 5.23242 8.92285C5.50596 8.64091 5.94915 8.64086 6.22266 8.92285L7 9.72461L7.77734 8.92285ZM2.33301 3.33301C2.15647 3.33309 1.98722 3.40358 1.8623 3.52832C1.73728 3.65334 1.66699 3.82319 1.66699 4V6H12.333V4C12.333 3.82319 12.2627 3.65334 12.1377 3.52832C12.0128 3.40358 11.8435 3.33309 11.667 3.33301H11V4C11 4.17681 10.9297 4.34666 10.8047 4.47168C10.6797 4.5966 10.5097 4.66699 10.333 4.66699C10.1565 4.66691 9.98722 4.59642 9.8623 4.47168C9.73728 4.34666 9.66699 4.17681 9.66699 4V3.33301H4.33301V4C4.33301 4.17681 4.26272 4.34666 4.1377 4.47168C4.01278 4.59642 3.84353 4.66691 3.66699 4.66699C3.49026 4.66699 3.32032 4.5966 3.19531 4.47168C3.07029 4.34666 3 4.17681 3 4V3.33301H2.33301Z" fill="#737373"/>
</svg>
