<svg width="12" height="13" viewBox="0 0 12 13" fill="none" xmlns="http://www.w3.org/2000/svg">
<path d="M8.91656 0.0837708C9.0712 0.0837708 9.21929 0.145375 9.32867 0.254669C9.43799 0.363989 9.49949 0.512186 9.49957 0.666779V1.25076H10.0836C10.5476 1.25085 10.9928 1.43535 11.3209 1.76346C11.6488 2.09162 11.8336 2.53679 11.8336 3.00076V11.1668C11.8336 11.6308 11.6488 12.0759 11.3209 12.4041C10.9928 12.7322 10.5476 12.9167 10.0836 12.9168H1.91656C1.45244 12.9168 1.00745 12.7323 0.67926 12.4041C0.351174 12.0759 0.166565 11.6308 0.166565 11.1668V3.00076C0.166565 2.53671 0.351173 2.09163 0.67926 1.76346C1.00745 1.43527 1.45244 1.25076 1.91656 1.25076H2.49957V0.666779C2.49966 0.512263 2.56125 0.363973 2.67047 0.254669C2.77987 0.145273 2.92885 0.0837708 3.08356 0.0837708C3.23815 0.0838568 3.38635 0.14535 3.49567 0.254669C3.60499 0.363989 3.66648 0.512186 3.66656 0.666779V1.25076H8.33356V0.666779C8.33364 0.512186 8.39514 0.363989 8.50446 0.254669C8.61384 0.145375 8.76193 0.0837709 8.91656 0.0837708ZM1.33356 11.1668C1.33356 11.3215 1.39506 11.4705 1.50446 11.5799C1.61382 11.6891 1.76201 11.7508 1.91656 11.7508H10.0836C10.2381 11.7507 10.3864 11.6891 10.4957 11.5799C10.6051 11.4705 10.6666 11.3215 10.6666 11.1668V5.91678H1.33356V11.1668ZM6.67926 7.30838C6.91862 7.06145 7.30707 7.06149 7.54645 7.30838C7.78582 7.55533 7.78582 7.95596 7.54645 8.20291L6.86676 8.90408L7.65875 9.72147C7.89807 9.96842 7.89811 10.3691 7.65875 10.616C7.41938 10.8629 7.03093 10.8629 6.79156 10.616L5.99957 9.79861L5.20758 10.616C4.96821 10.8629 4.57976 10.8629 4.34039 10.616C4.10104 10.3691 4.10107 9.96842 4.34039 9.72147L5.13239 8.90408L4.4527 8.20291C4.21332 7.95596 4.21332 7.55533 4.4527 7.30838C4.69208 7.06148 5.08053 7.06145 5.31989 7.30838L5.99957 8.00955L6.67926 7.30838ZM1.91656 2.41678C1.76201 2.41678 1.61382 2.47848 1.50446 2.58768C1.39506 2.69707 1.33356 2.84605 1.33356 3.00076V4.75076H10.6666V3.00076C10.6666 2.84605 10.6051 2.69707 10.4957 2.58768C10.3864 2.47846 10.2381 2.41686 10.0836 2.41678H9.49957V3.00076C9.49949 3.15536 9.43799 3.30355 9.32867 3.41287C9.21929 3.52217 9.0712 3.58377 8.91656 3.58377C8.76193 3.58377 8.61384 3.52217 8.50446 3.41287C8.39514 3.30355 8.33364 3.15536 8.33356 3.00076V2.41678H3.66656V3.00076C3.66648 3.15536 3.60499 3.30355 3.49567 3.41287C3.38635 3.52219 3.23815 3.58368 3.08356 3.58377C2.92885 3.58377 2.77987 3.52227 2.67047 3.41287C2.56125 3.30357 2.49966 3.15528 2.49957 3.00076V2.41678H1.91656Z" fill="#AB22FF"/>
</svg>
