<svg width="18" height="25" viewBox="0 0 18 25" fill="none" xmlns="http://www.w3.org/2000/svg">
<path d="M16.9999 9.6736C16.8126 9.48735 16.5591 9.38281 16.2949 9.38281C16.0308 9.38281 15.7773 9.48735 15.5899 9.6736L11.9999 13.2136L8.45995 9.6736C8.27259 9.48735 8.01913 9.38281 7.75495 9.38281C7.49076 9.38281 7.23731 9.48735 7.04995 9.6736C6.95622 9.76657 6.88183 9.87717 6.83106 9.99903C6.78029 10.1209 6.75415 10.2516 6.75415 10.3836C6.75415 10.5156 6.78029 10.6463 6.83106 10.7682C6.88183 10.89 6.95622 11.0006 7.04995 11.0936L11.2899 15.3336C11.3829 15.4273 11.4935 15.5017 11.6154 15.5525C11.7372 15.6033 11.8679 15.6294 11.9999 15.6294C12.132 15.6294 12.2627 15.6033 12.3845 15.5525C12.5064 15.5017 12.617 15.4273 12.7099 15.3336L16.9999 11.0936C17.0937 11.0006 17.1681 10.89 17.2188 10.7682C17.2696 10.6463 17.2957 10.5156 17.2957 10.3836C17.2957 10.2516 17.2696 10.1209 17.2188 9.99903C17.1681 9.87717 17.0937 9.76657 16.9999 9.6736Z" fill="#B3B3B3"/>
</svg>
