<svg width="16" height="14" viewBox="0 0 16 14" fill="none" xmlns="http://www.w3.org/2000/svg">
<path d="M6.86001 1.57323L1.21335 10.9999C1.09693 11.2015 1.03533 11.4301 1.03467 11.6629C1.03402 11.8957 1.09434 12.1246 1.20963 12.3269C1.32492 12.5292 1.49116 12.6977 1.69182 12.8158C1.89247 12.9339 2.12055 12.9973 2.35335 12.9999H13.6467C13.8795 12.9973 14.1076 12.9339 14.3082 12.8158C14.5089 12.6977 14.6751 12.5292 14.7904 12.3269C14.9057 12.1246 14.966 11.8957 14.9654 11.6629C14.9647 11.4301 14.9031 11.2015 14.7867 10.9999L9.14001 1.57323C9.02117 1.3773 8.85383 1.21531 8.65414 1.10288C8.45446 0.990458 8.22917 0.931396 8.00001 0.931396C7.77086 0.931396 7.54557 0.990458 7.34588 1.10288C7.1462 1.21531 6.97886 1.3773 6.86001 1.57323V1.57323Z" stroke="white" stroke-width="1.5" stroke-linecap="round" stroke-linejoin="round"/>
<path d="M8 5V7.66667" stroke="white" stroke-width="1.5" stroke-linecap="round" stroke-linejoin="round"/>
<path d="M8 10.3333H8.00667" stroke="white" stroke-width="2" stroke-linecap="round" stroke-linejoin="round"/>
</svg>
