<svg width="198" height="312" viewBox="0 0 198 312" fill="none" xmlns="http://www.w3.org/2000/svg">
<g filter="url(#filter0_d_69_248)">
<circle cx="154" cy="34" r="20" fill="#2ECC71"/>
</g>
<path d="M161.686 38.1557L159.55 36.0204C159.468 35.9377 159.371 35.872 159.263 35.8272C159.156 35.7825 159.04 35.7594 158.924 35.7594C158.807 35.7594 158.692 35.7825 158.584 35.8272C158.477 35.872 158.379 35.9377 158.297 36.0204L155.138 39.1792C155.057 39.2617 154.992 39.3594 154.948 39.4669C154.904 39.5744 154.882 39.6896 154.883 39.8057V41.941C154.883 42.175 154.976 42.3994 155.141 42.5649C155.307 42.7304 155.531 42.8233 155.765 42.8233H157.9C158.016 42.824 158.131 42.8017 158.239 42.7578C158.347 42.7139 158.444 42.6492 158.527 42.5674L161.686 39.4086C161.768 39.3266 161.834 39.229 161.879 39.1215C161.923 39.014 161.947 38.8986 161.947 38.7822C161.947 38.6657 161.923 38.5503 161.879 38.4428C161.834 38.3353 161.768 38.2377 161.686 38.1557V38.1557ZM157.53 41.0586H156.647V40.1763L158.924 37.8998L159.806 38.7822L157.53 41.0586ZM152.236 41.0586H148.706C148.472 41.0586 148.248 40.9657 148.082 40.8002C147.917 40.6347 147.824 40.4103 147.824 40.1763V27.8233C147.824 27.5893 147.917 27.3649 148.082 27.1994C148.248 27.0339 148.472 26.941 148.706 26.941H153.118V29.588C153.118 30.2901 153.397 30.9634 153.893 31.4598C154.39 31.9562 155.063 32.2351 155.765 32.2351H158.412V33.1174C158.412 33.3515 158.505 33.5759 158.67 33.7414C158.836 33.9068 159.06 33.9998 159.294 33.9998C159.528 33.9998 159.753 33.9068 159.918 33.7414C160.084 33.5759 160.177 33.3515 160.177 33.1174V31.3527C160.177 31.3527 160.177 31.3527 160.177 31.2998C160.168 31.2187 160.15 31.1389 160.124 31.0616V30.9822C160.081 30.8914 160.025 30.808 159.956 30.7351L154.662 25.441C154.589 25.3723 154.506 25.3158 154.415 25.2733C154.389 25.2696 154.362 25.2696 154.336 25.2733L154.053 25.1763H148.706C148.004 25.1763 147.331 25.4552 146.834 25.9516C146.338 26.448 146.059 27.1213 146.059 27.8233V40.1763C146.059 40.8783 146.338 41.5516 146.834 42.048C147.331 42.5444 148.004 42.8233 148.706 42.8233H152.236C152.47 42.8233 152.694 42.7304 152.859 42.5649C153.025 42.3994 153.118 42.175 153.118 41.941C153.118 41.707 153.025 41.4825 152.859 41.3171C152.694 41.1516 152.47 41.0586 152.236 41.0586ZM154.883 28.1851L157.168 30.4704H155.765C155.531 30.4704 155.307 30.3774 155.141 30.212C154.976 30.0465 154.883 29.822 154.883 29.588V28.1851ZM150.471 35.7645H155.765C155.999 35.7645 156.223 35.6715 156.389 35.5061C156.554 35.3406 156.647 35.1162 156.647 34.8822C156.647 34.6481 156.554 34.4237 156.389 34.2582C156.223 34.0928 155.999 33.9998 155.765 33.9998H150.471C150.237 33.9998 150.012 34.0928 149.847 34.2582C149.681 34.4237 149.588 34.6481 149.588 34.8822C149.588 35.1162 149.681 35.3406 149.847 35.5061C150.012 35.6715 150.237 35.7645 150.471 35.7645ZM150.471 32.2351H151.353C151.587 32.2351 151.812 32.1421 151.977 31.9767C152.143 31.8112 152.236 31.5868 152.236 31.3527C152.236 31.1187 152.143 30.8943 151.977 30.7288C151.812 30.5633 151.587 30.4704 151.353 30.4704H150.471C150.237 30.4704 150.012 30.5633 149.847 30.7288C149.681 30.8943 149.588 31.1187 149.588 31.3527C149.588 31.5868 149.681 31.8112 149.847 31.9767C150.012 32.1421 150.237 32.2351 150.471 32.2351ZM152.236 37.5292H150.471C150.237 37.5292 150.012 37.6222 149.847 37.7876C149.681 37.9531 149.588 38.1775 149.588 38.4116C149.588 38.6456 149.681 38.87 149.847 39.0355C150.012 39.201 150.237 39.2939 150.471 39.2939H152.236C152.47 39.2939 152.694 39.201 152.859 39.0355C153.025 38.87 153.118 38.6456 153.118 38.4116C153.118 38.1775 153.025 37.9531 152.859 37.7876C152.694 37.6222 152.47 37.5292 152.236 37.5292Z" fill="white"/>
<rect y="70" width="174" height="40" rx="20" fill="#2196F3"/>
<path d="M8.93306 94.5V85.7727H12.2058C12.8762 85.7727 13.4387 85.8892 13.8933 86.1222C14.3507 86.3551 14.6958 86.6818 14.9288 87.1023C15.1646 87.5199 15.2825 88.0071 15.2825 88.5639C15.2825 89.1236 15.1632 89.6094 14.9245 90.0213C14.6887 90.4304 14.3407 90.7472 13.8805 90.9716C13.4203 91.1932 12.8549 91.304 12.1845 91.304H9.85352V89.9915H11.9714C12.3635 89.9915 12.6845 89.9375 12.9345 89.8295C13.1845 89.7187 13.3691 89.5582 13.4885 89.348C13.6106 89.1349 13.6717 88.8736 13.6717 88.5639C13.6717 88.2543 13.6106 87.9901 13.4885 87.7713C13.3663 87.5497 13.1802 87.3821 12.9302 87.2685C12.6802 87.152 12.3578 87.0938 11.9629 87.0938H10.514V94.5H8.93306ZM13.4416 90.5455L15.6021 94.5H13.8379L11.7157 90.5455H13.4416ZM19.4735 94.6278C18.8173 94.6278 18.2505 94.4915 17.7733 94.2188C17.2988 93.9432 16.9338 93.554 16.6781 93.0511C16.4224 92.5455 16.2946 91.9503 16.2946 91.2656C16.2946 90.5923 16.4224 90.0014 16.6781 89.4929C16.9366 88.9815 17.2974 88.5838 17.7605 88.2997C18.2235 88.0128 18.7676 87.8693 19.3926 87.8693C19.796 87.8693 20.1767 87.9347 20.5346 88.0653C20.8954 88.1932 21.2136 88.392 21.4892 88.6619C21.7676 88.9318 21.9863 89.2756 22.1454 89.6932C22.3045 90.108 22.3841 90.6023 22.3841 91.1761V91.6491H17.019V90.6094H20.9054C20.9025 90.3139 20.8386 90.0511 20.7136 89.821C20.5886 89.5881 20.4139 89.4048 20.1895 89.2713C19.9679 89.1378 19.7093 89.071 19.4139 89.071C19.0985 89.071 18.8216 89.1477 18.5829 89.3011C18.3443 89.4517 18.1582 89.6506 18.0247 89.8977C17.894 90.142 17.8272 90.4105 17.8244 90.7031V91.6108C17.8244 91.9915 17.894 92.3182 18.0332 92.5909C18.1724 92.8608 18.367 93.0682 18.617 93.2131C18.867 93.3551 19.1596 93.4261 19.4949 93.4261C19.7193 93.4261 19.9224 93.3949 20.1042 93.3324C20.286 93.267 20.4437 93.1719 20.5772 93.0469C20.7108 92.9219 20.8116 92.767 20.8798 92.5824L22.3201 92.7443C22.2292 93.125 22.0559 93.4574 21.8002 93.7415C21.5474 94.0227 21.2235 94.2415 20.8287 94.3977C20.4338 94.5511 19.9821 94.6278 19.4735 94.6278ZM28.057 96.9545V93.4688H27.9931C27.9135 93.6278 27.7985 93.7969 27.6479 93.9759C27.4973 94.152 27.2985 94.3026 27.0513 94.4276C26.8042 94.5526 26.4931 94.6151 26.1181 94.6151C25.6039 94.6151 25.1436 94.483 24.7374 94.2188C24.3311 93.9545 24.0101 93.571 23.7743 93.0682C23.5385 92.5653 23.4206 91.9545 23.4206 91.2358C23.4206 90.5085 23.54 89.8949 23.7786 89.3949C24.0201 88.892 24.3453 88.5128 24.7544 88.2571C25.1635 87.9986 25.6195 87.8693 26.1223 87.8693C26.5059 87.8693 26.8212 87.9347 27.0684 88.0653C27.3155 88.1932 27.5115 88.348 27.6564 88.5298C27.8013 88.7088 27.9135 88.8778 27.9931 89.0369H28.0868V87.9545H29.6039V96.9545H28.057ZM26.5485 93.3494C26.8752 93.3494 27.1536 93.2614 27.3837 93.0852C27.6138 92.9062 27.7885 92.6577 27.9078 92.3395C28.0272 92.0213 28.0868 91.6506 28.0868 91.2273C28.0868 90.804 28.0272 90.4361 27.9078 90.1236C27.7914 89.8111 27.6181 89.5682 27.388 89.3949C27.1607 89.2216 26.8809 89.1349 26.5485 89.1349C26.2047 89.1349 25.9178 89.2244 25.6877 89.4034C25.4576 89.5824 25.2843 89.8295 25.1678 90.1449C25.0513 90.4602 24.9931 90.821 24.9931 91.2273C24.9931 91.6364 25.0513 92.0014 25.1678 92.3224C25.2871 92.6406 25.4618 92.892 25.6919 93.0767C25.9249 93.2585 26.2104 93.3494 26.5485 93.3494ZM35.361 91.7472V87.9545H36.9036V94.5H35.4078V93.3366H35.3397C35.1919 93.7031 34.949 94.0028 34.611 94.2358C34.2757 94.4687 33.8624 94.5852 33.3709 94.5852C32.9419 94.5852 32.5627 94.4901 32.2331 94.2997C31.9064 94.1065 31.6507 93.8267 31.4661 93.4602C31.2814 93.0909 31.1891 92.6449 31.1891 92.1222V87.9545H32.7317V91.8835C32.7317 92.2983 32.8453 92.6278 33.0726 92.8722C33.2999 93.1165 33.5982 93.2386 33.9675 93.2386C34.1948 93.2386 34.415 93.1832 34.628 93.0724C34.8411 92.9616 35.0158 92.7969 35.1522 92.5781C35.2914 92.3565 35.361 92.0795 35.361 91.7472ZM41.3876 94.6278C40.7314 94.6278 40.1646 94.4915 39.6873 94.2188C39.2129 93.9432 38.8478 93.554 38.5922 93.0511C38.3365 92.5455 38.2086 91.9503 38.2086 91.2656C38.2086 90.5923 38.3365 90.0014 38.5922 89.4929C38.8507 88.9815 39.2115 88.5838 39.6745 88.2997C40.1376 88.0128 40.6816 87.8693 41.3066 87.8693C41.71 87.8693 42.0907 87.9347 42.4487 88.0653C42.8095 88.1932 43.1277 88.392 43.4032 88.6619C43.6816 88.9318 43.9004 89.2756 44.0595 89.6932C44.2186 90.108 44.2981 90.6023 44.2981 91.1761V91.6491H38.9331V90.6094H42.8194C42.8166 90.3139 42.7527 90.0511 42.6277 89.821C42.5027 89.5881 42.3279 89.4048 42.1035 89.2713C41.8819 89.1378 41.6234 89.071 41.3279 89.071C41.0126 89.071 40.7356 89.1477 40.497 89.3011C40.2583 89.4517 40.0723 89.6506 39.9387 89.8977C39.8081 90.142 39.7413 90.4105 39.7385 90.7031V91.6108C39.7385 91.9915 39.8081 92.3182 39.9473 92.5909C40.0865 92.8608 40.2811 93.0682 40.5311 93.2131C40.7811 93.3551 41.0737 93.4261 41.4089 93.4261C41.6333 93.4261 41.8365 93.3949 42.0183 93.3324C42.2001 93.267 42.3578 93.1719 42.4913 93.0469C42.6248 92.9219 42.7257 92.767 42.7939 92.5824L44.2342 92.7443C44.1433 93.125 43.97 93.4574 43.7143 93.7415C43.4615 94.0227 43.1376 94.2415 42.7427 94.3977C42.3478 94.5511 41.8961 94.6278 41.3876 94.6278ZM50.7765 89.6847L49.3702 89.8381C49.3304 89.696 49.2608 89.5625 49.1614 89.4375C49.0648 89.3125 48.9341 89.2116 48.7694 89.1349C48.6046 89.0582 48.4029 89.0199 48.1642 89.0199C47.8432 89.0199 47.5733 89.0895 47.3546 89.2287C47.1387 89.3679 47.0321 89.5483 47.035 89.7699C47.0321 89.9602 47.1017 90.1151 47.2438 90.2344C47.3887 90.3537 47.6273 90.4517 47.9597 90.5284L49.0762 90.767C49.6955 90.9006 50.1557 91.1122 50.4569 91.402C50.7608 91.6918 50.9142 92.071 50.9171 92.5398C50.9142 92.9517 50.7935 93.3153 50.5549 93.6307C50.3191 93.9432 49.9909 94.1875 49.5705 94.3636C49.15 94.5398 48.6671 94.6278 48.1216 94.6278C47.3205 94.6278 46.6756 94.4602 46.187 94.125C45.6983 93.7869 45.4071 93.3168 45.3134 92.7145L46.8176 92.5696C46.8858 92.8651 47.0307 93.0881 47.2523 93.2386C47.4739 93.3892 47.7623 93.4645 48.1174 93.4645C48.4838 93.4645 48.7779 93.3892 48.9995 93.2386C49.2239 93.0881 49.3361 92.902 49.3361 92.6804C49.3361 92.4929 49.2637 92.3381 49.1188 92.2159C48.9767 92.0937 48.7551 92 48.454 91.9347L47.3375 91.7003C46.7097 91.5696 46.2452 91.3494 45.9441 91.0398C45.6429 90.7273 45.4938 90.3324 45.4966 89.8551C45.4938 89.4517 45.6032 89.1023 45.8248 88.8068C46.0492 88.5085 46.3603 88.2784 46.758 88.1165C47.1586 87.9517 47.6202 87.8693 48.1429 87.8693C48.91 87.8693 49.5137 88.0327 49.954 88.3594C50.3972 88.6861 50.6713 89.1278 50.7765 89.6847ZM55.4576 87.9545V89.1477H51.6948V87.9545H55.4576ZM52.6238 86.3864H54.1664V92.5312C54.1664 92.7386 54.1976 92.8977 54.2601 93.0085C54.3255 93.1165 54.4107 93.1903 54.5158 93.2301C54.6209 93.2699 54.7374 93.2898 54.8652 93.2898C54.9618 93.2898 55.0499 93.2827 55.1294 93.2685C55.2118 93.2543 55.2743 93.2415 55.3169 93.2301L55.5769 94.4361C55.4945 94.4645 55.3766 94.4957 55.2232 94.5298C55.0726 94.5639 54.888 94.5838 54.6692 94.5895C54.2828 94.6009 53.9348 94.5426 53.6252 94.4148C53.3155 94.2841 53.0698 94.0824 52.888 93.8097C52.709 93.5369 52.6209 93.196 52.6238 92.7869V86.3864ZM59.7243 94.5V87.9545H61.22V89.0455H61.2882C61.4075 88.6676 61.612 88.3764 61.9018 88.1719C62.1944 87.9645 62.5282 87.8608 62.9032 87.8608C62.9885 87.8608 63.0836 87.8651 63.1887 87.8736C63.2967 87.8793 63.3862 87.8892 63.4572 87.9034V89.3224C63.3919 89.2997 63.2882 89.2798 63.1461 89.2628C63.0069 89.2429 62.872 89.233 62.7413 89.233C62.46 89.233 62.2072 89.294 61.9828 89.4162C61.7612 89.5355 61.5865 89.7017 61.4586 89.9148C61.3308 90.1278 61.2669 90.3736 61.2669 90.652V94.5H59.7243ZM67.1103 94.6278C66.454 94.6278 65.8873 94.4915 65.41 94.2188C64.9355 93.9432 64.5705 93.554 64.3148 93.0511C64.0591 92.5455 63.9313 91.9503 63.9313 91.2656C63.9313 90.5923 64.0591 90.0014 64.3148 89.4929C64.5733 88.9815 64.9341 88.5838 65.3972 88.2997C65.8603 88.0128 66.4043 87.8693 67.0293 87.8693C67.4327 87.8693 67.8134 87.9347 68.1713 88.0653C68.5321 88.1932 68.8503 88.392 69.1259 88.6619C69.4043 88.9318 69.623 89.2756 69.7821 89.6932C69.9412 90.108 70.0208 90.6023 70.0208 91.1761V91.6491H64.6557V90.6094H68.5421C68.5392 90.3139 68.4753 90.0511 68.3503 89.821C68.2253 89.5881 68.0506 89.4048 67.8262 89.2713C67.6046 89.1378 67.3461 89.071 67.0506 89.071C66.7353 89.071 66.4583 89.1477 66.2196 89.3011C65.981 89.4517 65.7949 89.6506 65.6614 89.8977C65.5307 90.142 65.464 90.4105 65.4611 90.7031V91.6108C65.4611 91.9915 65.5307 92.3182 65.6699 92.5909C65.8091 92.8608 66.0037 93.0682 66.2537 93.2131C66.5037 93.3551 66.7963 93.4261 67.1316 93.4261C67.356 93.4261 67.5591 93.3949 67.7409 93.3324C67.9228 93.267 68.0804 93.1719 68.214 93.0469C68.3475 92.9219 68.4483 92.767 68.5165 92.5824L69.9569 92.7443C69.8659 93.125 69.6926 93.4574 69.437 93.7415C69.1841 94.0227 68.8603 94.2415 68.4654 94.3977C68.0705 94.5511 67.6188 94.6278 67.1103 94.6278ZM71.3258 94.5V87.9545H72.8002V89.0668H72.877C73.0133 88.6918 73.2392 88.3991 73.5545 88.1889C73.8699 87.9759 74.2463 87.8693 74.6838 87.8693C75.127 87.8693 75.5005 87.9773 75.8045 88.1932C76.1113 88.4062 76.3272 88.6974 76.4522 89.0668H76.5204C76.6653 88.7031 76.9096 88.4134 77.2534 88.1974C77.6 87.9787 78.0105 87.8693 78.4849 87.8693C79.0872 87.8693 79.5787 88.0597 79.9593 88.4403C80.34 88.821 80.5304 89.3764 80.5304 90.1065V94.5H78.9835V90.3452C78.9835 89.9389 78.8755 89.642 78.6596 89.4545C78.4437 89.2642 78.1795 89.169 77.867 89.169C77.4949 89.169 77.2037 89.2855 76.9934 89.5185C76.786 89.7486 76.6824 90.0483 76.6824 90.4176V94.5H75.1696V90.2812C75.1696 89.9432 75.0673 89.6733 74.8627 89.4716C74.661 89.2699 74.3968 89.169 74.0701 89.169C73.8485 89.169 73.6468 89.2259 73.465 89.3395C73.2832 89.4503 73.1383 89.608 73.0304 89.8125C72.9224 90.0142 72.8684 90.25 72.8684 90.5199V94.5H71.3258ZM84.9505 94.6278C84.3113 94.6278 83.7573 94.4872 83.2885 94.206C82.8198 93.9247 82.4561 93.5312 82.1976 93.0256C81.9419 92.5199 81.8141 91.929 81.8141 91.2528C81.8141 90.5767 81.9419 89.9844 82.1976 89.4759C82.4561 88.9673 82.8198 88.5724 83.2885 88.2912C83.7573 88.0099 84.3113 87.8693 84.9505 87.8693C85.5897 87.8693 86.1436 88.0099 86.6124 88.2912C87.0811 88.5724 87.4434 88.9673 87.699 89.4759C87.9576 89.9844 88.0868 90.5767 88.0868 91.2528C88.0868 91.929 87.9576 92.5199 87.699 93.0256C87.4434 93.5312 87.0811 93.9247 86.6124 94.206C86.1436 94.4872 85.5897 94.6278 84.9505 94.6278ZM84.959 93.392C85.3056 93.392 85.5953 93.2969 85.8283 93.1065C86.0613 92.9134 86.2346 92.6548 86.3482 92.331C86.4647 92.0071 86.5229 91.6463 86.5229 91.2486C86.5229 90.848 86.4647 90.4858 86.3482 90.1619C86.2346 89.8352 86.0613 89.5753 85.8283 89.3821C85.5953 89.1889 85.3056 89.0923 84.959 89.0923C84.6039 89.0923 84.3084 89.1889 84.0726 89.3821C83.8397 89.5753 83.665 89.8352 83.5485 90.1619C83.4348 90.4858 83.378 90.848 83.378 91.2486C83.378 91.6463 83.4348 92.0071 83.5485 92.331C83.665 92.6548 83.8397 92.9134 84.0726 93.1065C84.3084 93.2969 84.6039 93.392 84.959 93.392ZM92.6646 87.9545V89.1477H88.9018V87.9545H92.6646ZM89.8308 86.3864H91.3734V92.5312C91.3734 92.7386 91.4047 92.8977 91.4672 93.0085C91.5325 93.1165 91.6177 93.1903 91.7228 93.2301C91.8279 93.2699 91.9444 93.2898 92.0723 93.2898C92.1689 93.2898 92.2569 93.2827 92.3365 93.2685C92.4189 93.2543 92.4814 93.2415 92.524 93.2301L92.7839 94.4361C92.7015 94.4645 92.5836 94.4957 92.4302 94.5298C92.2797 94.5639 92.095 94.5838 91.8762 94.5895C91.4899 94.6009 91.1419 94.5426 90.8322 94.4148C90.5225 94.2841 90.2768 94.0824 90.095 93.8097C89.916 93.5369 89.8279 93.196 89.8308 92.7869V86.3864ZM96.7821 94.6278C96.1259 94.6278 95.5591 94.4915 95.0819 94.2188C94.6074 93.9432 94.2424 93.554 93.9867 93.0511C93.731 92.5455 93.6032 91.9503 93.6032 91.2656C93.6032 90.5923 93.731 90.0014 93.9867 89.4929C94.2452 88.9815 94.606 88.5838 95.0691 88.2997C95.5321 88.0128 96.0762 87.8693 96.7012 87.8693C97.1046 87.8693 97.4853 87.9347 97.8432 88.0653C98.204 88.1932 98.5222 88.392 98.7978 88.6619C99.0762 88.9318 99.2949 89.2756 99.454 89.6932C99.6131 90.108 99.6926 90.6023 99.6926 91.1761V91.6491H94.3276V90.6094H98.214C98.2111 90.3139 98.1472 90.0511 98.0222 89.821C97.8972 89.5881 97.7225 89.4048 97.498 89.2713C97.2765 89.1378 97.0179 89.071 96.7225 89.071C96.4071 89.071 96.1301 89.1477 95.8915 89.3011C95.6529 89.4517 95.4668 89.6506 95.3333 89.8977C95.2026 90.142 95.1358 90.4105 95.133 90.7031V91.6108C95.133 91.9915 95.2026 92.3182 95.3418 92.5909C95.481 92.8608 95.6756 93.0682 95.9256 93.2131C96.1756 93.3551 96.4682 93.4261 96.8034 93.4261C97.0279 93.4261 97.231 93.3949 97.4128 93.3324C97.5946 93.267 97.7523 93.1719 97.8858 93.0469C98.0194 92.9219 98.1202 92.767 98.1884 92.5824L99.6287 92.7443C99.5378 93.125 99.3645 93.4574 99.1088 93.7415C98.856 94.0227 98.5321 94.2415 98.1373 94.3977C97.7424 94.5511 97.2907 94.6278 96.7821 94.6278ZM105.325 94.5L103.476 87.9545H105.048L106.199 92.5568H106.258L107.434 87.9545H108.99L110.166 92.5312H110.23L111.363 87.9545H112.94L111.086 94.5H109.48L108.253 90.0767H108.163L106.936 94.5H105.325ZM116.685 94.6278C116.046 94.6278 115.492 94.4872 115.023 94.206C114.554 93.9247 114.191 93.5312 113.932 93.0256C113.676 92.5199 113.548 91.929 113.548 91.2528C113.548 90.5767 113.676 89.9844 113.932 89.4759C114.191 88.9673 114.554 88.5724 115.023 88.2912C115.492 88.0099 116.046 87.8693 116.685 87.8693C117.324 87.8693 117.878 88.0099 118.347 88.2912C118.816 88.5724 119.178 88.9673 119.433 89.4759C119.692 89.9844 119.821 90.5767 119.821 91.2528C119.821 91.929 119.692 92.5199 119.433 93.0256C119.178 93.5312 118.816 93.9247 118.347 94.206C117.878 94.4872 117.324 94.6278 116.685 94.6278ZM116.693 93.392C117.04 93.392 117.33 93.2969 117.563 93.1065C117.796 92.9134 117.969 92.6548 118.083 92.331C118.199 92.0071 118.257 91.6463 118.257 91.2486C118.257 90.848 118.199 90.4858 118.083 90.1619C117.969 89.8352 117.796 89.5753 117.563 89.3821C117.33 89.1889 117.04 89.0923 116.693 89.0923C116.338 89.0923 116.043 89.1889 115.807 89.3821C115.574 89.5753 115.399 89.8352 115.283 90.1619C115.169 90.4858 115.112 90.848 115.112 91.2486C115.112 91.6463 115.169 92.0071 115.283 92.331C115.399 92.6548 115.574 92.9134 115.807 93.1065C116.043 93.2969 116.338 93.392 116.693 93.392ZM121.131 94.5V87.9545H122.626V89.0455H122.694C122.814 88.6676 123.018 88.3764 123.308 88.1719C123.601 87.9645 123.934 87.8608 124.309 87.8608C124.395 87.8608 124.49 87.8651 124.595 87.8736C124.703 87.8793 124.792 87.8892 124.863 87.9034V89.3224C124.798 89.2997 124.694 89.2798 124.552 89.2628C124.413 89.2429 124.278 89.233 124.148 89.233C123.866 89.233 123.613 89.294 123.389 89.4162C123.167 89.5355 122.993 89.7017 122.865 89.9148C122.737 90.1278 122.673 90.3736 122.673 90.652V94.5H121.131ZM127.295 92.446L127.29 90.5838H127.537L129.89 87.9545H131.692L128.799 91.1761H128.479L127.295 92.446ZM125.888 94.5V85.7727H127.431V94.5H125.888ZM129.996 94.5L127.866 91.5213L128.905 90.4347L131.841 94.5H129.996Z" fill="white"/>
<g filter="url(#filter1_d_69_248)">
<rect x="138" y="74" width="32" height="32" rx="16" fill="white"/>
<path d="M161.425 92.4766V94.502C161.425 95.1231 160.921 95.6267 160.3 95.627H147.7C147.079 95.6268 146.575 95.1231 146.575 94.502V92.4766H161.425Z" stroke="#2196F3" stroke-width="1.35"/>
<path d="M159.4 91.7982V85.4982C159.4 84.5041 158.594 83.6982 157.6 83.6982H150.4C149.406 83.6982 148.6 84.5041 148.6 85.4982V91.7982" stroke="#2196F3" stroke-width="1.35"/>
<path d="M152.2 90.0014L155.8 86.4014M155.8 86.4014V89.1012M155.8 86.4014H153.1" stroke="#2196F3" stroke-width="0.9" stroke-linecap="round" stroke-linejoin="round"/>
</g>
<g filter="url(#filter2_d_69_248)">
<circle cx="154" cy="146" r="20" fill="white"/>
</g>
<path d="M163.901 149.305V152.004C163.901 152.832 163.229 153.504 162.401 153.504H145.601C144.772 153.504 144.101 152.832 144.101 152.004V149.305H163.901Z" stroke="#B3B3B3" stroke-width="1.8"/>
<path d="M161.2 148.405V140.005C161.2 138.68 160.126 137.605 158.8 137.605H149.2C147.875 137.605 146.8 138.68 146.8 140.005V148.405" stroke="#B3B3B3" stroke-width="1.8"/>
<path d="M154.001 146.011H154.007M152.201 144.314C152.679 143.864 153.326 143.612 154.001 143.612C154.676 143.612 155.323 143.864 155.801 144.314M150.401 142.617C150.874 142.171 151.435 141.818 152.053 141.576C152.67 141.335 153.332 141.211 154.001 141.211C154.669 141.211 155.332 141.335 155.949 141.576C156.567 141.818 157.128 142.171 157.601 142.617" stroke="#B3B3B3" stroke-width="1.2" stroke-linecap="round" stroke-linejoin="round"/>
<g filter="url(#filter3_dd_69_248)">
<rect x="134" y="182" width="40" height="40" rx="20" fill="white"/>
<path d="M155.353 198.471H156.235C156.469 198.471 156.694 198.378 156.859 198.212C157.025 198.047 157.118 197.822 157.118 197.588C157.118 197.354 157.025 197.13 156.859 196.964C156.694 196.799 156.469 196.706 156.235 196.706H155.353C155.119 196.706 154.894 196.799 154.729 196.964C154.563 197.13 154.471 197.354 154.471 197.588C154.471 197.822 154.563 198.047 154.729 198.212C154.894 198.378 155.119 198.471 155.353 198.471V198.471ZM155.353 202H156.235C156.469 202 156.694 201.907 156.859 201.742C157.025 201.576 157.118 201.352 157.118 201.118C157.118 200.884 157.025 200.659 156.859 200.494C156.694 200.328 156.469 200.235 156.235 200.235H155.353C155.119 200.235 154.894 200.328 154.729 200.494C154.563 200.659 154.471 200.884 154.471 201.118C154.471 201.352 154.563 201.576 154.729 201.742C154.894 201.907 155.119 202 155.353 202V202ZM150.941 198.471H151.823C152.057 198.471 152.282 198.378 152.447 198.212C152.613 198.047 152.706 197.822 152.706 197.588C152.706 197.354 152.613 197.13 152.447 196.964C152.282 196.799 152.057 196.706 151.823 196.706H150.941C150.707 196.706 150.483 196.799 150.317 196.964C150.152 197.13 150.059 197.354 150.059 197.588C150.059 197.822 150.152 198.047 150.317 198.212C150.483 198.378 150.707 198.471 150.941 198.471V198.471ZM150.941 202H151.823C152.057 202 152.282 201.907 152.447 201.742C152.613 201.576 152.706 201.352 152.706 201.118C152.706 200.884 152.613 200.659 152.447 200.494C152.282 200.328 152.057 200.235 151.823 200.235H150.941C150.707 200.235 150.483 200.328 150.317 200.494C150.152 200.659 150.059 200.884 150.059 201.118C150.059 201.352 150.152 201.576 150.317 201.742C150.483 201.907 150.707 202 150.941 202V202ZM161.529 209.059H160.647V194.059C160.647 193.825 160.554 193.6 160.389 193.435C160.223 193.269 159.999 193.177 159.765 193.177H147.412C147.178 193.177 146.953 193.269 146.788 193.435C146.622 193.6 146.529 193.825 146.529 194.059V209.059H145.647C145.413 209.059 145.189 209.152 145.023 209.317C144.858 209.483 144.765 209.707 144.765 209.941C144.765 210.175 144.858 210.4 145.023 210.565C145.189 210.731 145.413 210.824 145.647 210.824H161.529C161.763 210.824 161.988 210.731 162.153 210.565C162.319 210.4 162.412 210.175 162.412 209.941C162.412 209.707 162.319 209.483 162.153 209.317C161.988 209.152 161.763 209.059 161.529 209.059ZM154.471 209.059H152.706V205.529H154.471V209.059ZM158.882 209.059H156.235V204.647C156.235 204.413 156.142 204.189 155.977 204.023C155.811 203.858 155.587 203.765 155.353 203.765H151.823C151.589 203.765 151.365 203.858 151.2 204.023C151.034 204.189 150.941 204.413 150.941 204.647V209.059H148.294V194.941H158.882V209.059Z" fill="#B3B3B3"/>
</g>
<g filter="url(#filter4_d_69_248)">
<rect x="134" y="238" width="40" height="40" rx="20" fill="white"/>
<path d="M158 248.295C158.234 248.295 158.459 248.387 158.624 248.552C158.789 248.718 158.883 248.943 158.883 249.177V250.059H159.765C160.467 250.059 161.14 250.338 161.637 250.835C162.133 251.331 162.412 252.004 162.412 252.706V265.059C162.412 265.761 162.133 266.434 161.637 266.93C161.14 267.427 160.467 267.706 159.765 267.706H147.412C146.71 267.706 146.036 267.427 145.54 266.93C145.044 266.434 144.765 265.761 144.765 265.059V252.706C144.765 252.004 145.044 251.331 145.54 250.835C146.036 250.338 146.71 250.059 147.412 250.059H148.294V249.177C148.294 248.943 148.387 248.718 148.553 248.552C148.718 248.387 148.943 248.295 149.177 248.295C149.411 248.295 149.635 248.387 149.801 248.552C149.966 248.718 150.059 248.943 150.059 249.177V250.059H157.117V249.177C157.117 248.943 157.211 248.718 157.376 248.552C157.541 248.387 157.766 248.295 158 248.295ZM146.529 265.059C146.529 265.293 146.623 265.517 146.788 265.682C146.954 265.848 147.178 265.941 147.412 265.941H159.765C159.999 265.941 160.223 265.848 160.389 265.682C160.554 265.517 160.647 265.293 160.647 265.059V257.118H146.529V265.059ZM154.617 259.221C154.979 258.848 155.566 258.848 155.928 259.221C156.29 259.595 156.29 260.2 155.928 260.574L154.899 261.635L156.098 262.872C156.46 263.245 156.46 263.851 156.098 264.224C155.736 264.598 155.148 264.598 154.786 264.224L153.588 262.988L152.39 264.224C152.028 264.598 151.441 264.598 151.079 264.224C150.717 263.851 150.717 263.245 151.079 262.872L152.277 261.635L151.248 260.574C150.886 260.2 150.886 259.595 151.248 259.221C151.61 258.848 152.197 258.848 152.56 259.221L153.588 260.283L154.617 259.221ZM147.412 251.824C147.178 251.824 146.954 251.916 146.788 252.082C146.623 252.247 146.529 252.472 146.529 252.706V255.353H160.647V252.706C160.647 252.472 160.554 252.247 160.389 252.082C160.223 251.916 159.999 251.824 159.765 251.824H158.883V252.706C158.883 252.94 158.789 253.164 158.624 253.33C158.459 253.495 158.234 253.589 158 253.589C157.766 253.589 157.541 253.495 157.376 253.33C157.211 253.164 157.117 252.94 157.117 252.706V251.824H150.059V252.706C150.059 252.94 149.966 253.164 149.801 253.33C149.635 253.495 149.411 253.589 149.177 253.589C148.943 253.589 148.718 253.495 148.553 253.33C148.387 253.164 148.294 252.94 148.294 252.706V251.824H147.412Z" fill="#B3B3B3"/>
</g>
<defs>
<filter id="filter0_d_69_248" x="110" y="0" width="88" height="88" filterUnits="userSpaceOnUse" color-interpolation-filters="sRGB">
<feFlood flood-opacity="0" result="BackgroundImageFix"/>
<feColorMatrix in="SourceAlpha" type="matrix" values="0 0 0 0 0 0 0 0 0 0 0 0 0 0 0 0 0 0 127 0" result="hardAlpha"/>
<feOffset dy="10"/>
<feGaussianBlur stdDeviation="12"/>
<feColorMatrix type="matrix" values="0 0 0 0 0.239886 0 0 0 0 0.288446 0 0 0 0 0.320819 0 0 0 0.2 0"/>
<feBlend mode="normal" in2="BackgroundImageFix" result="effect1_dropShadow_69_248"/>
<feBlend mode="normal" in="SourceGraphic" in2="effect1_dropShadow_69_248" result="shape"/>
</filter>
<filter id="filter1_d_69_248" x="114" y="60" width="80" height="80" filterUnits="userSpaceOnUse" color-interpolation-filters="sRGB">
<feFlood flood-opacity="0" result="BackgroundImageFix"/>
<feColorMatrix in="SourceAlpha" type="matrix" values="0 0 0 0 0 0 0 0 0 0 0 0 0 0 0 0 0 0 127 0" result="hardAlpha"/>
<feOffset dy="10"/>
<feGaussianBlur stdDeviation="12"/>
<feColorMatrix type="matrix" values="0 0 0 0 0.239886 0 0 0 0 0.288446 0 0 0 0 0.320819 0 0 0 0.2 0"/>
<feBlend mode="normal" in2="BackgroundImageFix" result="effect1_dropShadow_69_248"/>
<feBlend mode="normal" in="SourceGraphic" in2="effect1_dropShadow_69_248" result="shape"/>
</filter>
<filter id="filter2_d_69_248" x="110" y="112" width="88" height="88" filterUnits="userSpaceOnUse" color-interpolation-filters="sRGB">
<feFlood flood-opacity="0" result="BackgroundImageFix"/>
<feColorMatrix in="SourceAlpha" type="matrix" values="0 0 0 0 0 0 0 0 0 0 0 0 0 0 0 0 0 0 127 0" result="hardAlpha"/>
<feOffset dy="10"/>
<feGaussianBlur stdDeviation="12"/>
<feColorMatrix type="matrix" values="0 0 0 0 0.239886 0 0 0 0 0.288446 0 0 0 0 0.320819 0 0 0 0.2 0"/>
<feBlend mode="normal" in2="BackgroundImageFix" result="effect1_dropShadow_69_248"/>
<feBlend mode="normal" in="SourceGraphic" in2="effect1_dropShadow_69_248" result="shape"/>
</filter>
<filter id="filter3_dd_69_248" x="110" y="168" width="88" height="88" filterUnits="userSpaceOnUse" color-interpolation-filters="sRGB">
<feFlood flood-opacity="0" result="BackgroundImageFix"/>
<feColorMatrix in="SourceAlpha" type="matrix" values="0 0 0 0 0 0 0 0 0 0 0 0 0 0 0 0 0 0 127 0" result="hardAlpha"/>
<feOffset dy="10"/>
<feGaussianBlur stdDeviation="12"/>
<feColorMatrix type="matrix" values="0 0 0 0 0.239886 0 0 0 0 0.288446 0 0 0 0 0.320819 0 0 0 0.2 0"/>
<feBlend mode="normal" in2="BackgroundImageFix" result="effect1_dropShadow_69_248"/>
<feColorMatrix in="SourceAlpha" type="matrix" values="0 0 0 0 0 0 0 0 0 0 0 0 0 0 0 0 0 0 127 0" result="hardAlpha"/>
<feOffset dy="10"/>
<feGaussianBlur stdDeviation="12"/>
<feColorMatrix type="matrix" values="0 0 0 0 0.239886 0 0 0 0 0.288446 0 0 0 0 0.320819 0 0 0 0.2 0"/>
<feBlend mode="normal" in2="effect1_dropShadow_69_248" result="effect2_dropShadow_69_248"/>
<feBlend mode="normal" in="SourceGraphic" in2="effect2_dropShadow_69_248" result="shape"/>
</filter>
<filter id="filter4_d_69_248" x="110" y="224" width="88" height="88" filterUnits="userSpaceOnUse" color-interpolation-filters="sRGB">
<feFlood flood-opacity="0" result="BackgroundImageFix"/>
<feColorMatrix in="SourceAlpha" type="matrix" values="0 0 0 0 0 0 0 0 0 0 0 0 0 0 0 0 0 0 127 0" result="hardAlpha"/>
<feOffset dy="10"/>
<feGaussianBlur stdDeviation="12"/>
<feColorMatrix type="matrix" values="0 0 0 0 0.239886 0 0 0 0 0.288446 0 0 0 0 0.320819 0 0 0 0.2 0"/>
<feBlend mode="normal" in2="BackgroundImageFix" result="effect1_dropShadow_69_248"/>
<feBlend mode="normal" in="SourceGraphic" in2="effect1_dropShadow_69_248" result="shape"/>
</filter>
</defs>
</svg>
