<svg width="12" height="14" viewBox="0 0 12 14" fill="none" xmlns="http://www.w3.org/2000/svg">
<path d="M5.99994 1.16797C5.71682 1.16798 5.44321 1.27032 5.23041 1.45703L1.23041 4.95703V4.95801C1.10596 5.06734 1.00583 5.20167 0.937439 5.35254C0.869058 5.5034 0.833156 5.66737 0.832947 5.83301V11.667C0.833032 11.9761 0.956251 12.2725 1.17474 12.4912C1.39352 12.71 1.69054 12.833 1.99994 12.833H3.83295V9C3.83295 8.60227 3.99122 8.22074 4.2724 7.93945C4.55361 7.65824 4.93526 7.5001 5.33295 7.5H6.66693C7.06466 7.50007 7.44624 7.65821 7.72748 7.93945C8.0087 8.22074 8.16693 8.60224 8.16693 9V12.833H9.99994C10.3094 12.833 10.6063 12.71 10.8251 12.4912C11.0437 12.2725 11.1668 11.9762 11.1669 11.667V5.83301L11.1601 5.70898C11.1468 5.58598 11.1137 5.46569 11.0624 5.35254C10.9941 5.20183 10.8947 5.06727 10.7704 4.95801L10.7695 4.95703L6.76947 1.45703C6.55666 1.27034 6.28305 1.16797 5.99994 1.16797ZM5.33295 7.83301C5.02381 7.83311 4.7274 7.95629 4.50873 8.1748C4.28994 8.3936 4.16693 8.69058 4.16693 9V12.833H7.83295V9C7.83295 8.69058 7.70994 8.3936 7.49115 8.1748C7.27245 7.9563 6.97609 7.83308 6.66693 7.83301H5.33295ZM0.499939 5.83594C0.498259 5.62291 0.541667 5.41161 0.627869 5.2168C0.714074 5.02204 0.841186 4.84804 0.999939 4.70605L0.998962 4.70508L4.99603 1.20312L4.99994 1.19922C5.27493 0.953272 5.63101 0.817398 5.99994 0.817383C6.36886 0.817383 6.72494 0.953297 6.99994 1.19922L7.00385 1.20312L10.9999 4.70508V4.70605C11.1581 4.84753 11.2848 5.02091 11.371 5.21484C11.4572 5.40875 11.5009 5.61887 11.4999 5.83105V11.667C11.4999 12.0647 11.3417 12.4463 11.0605 12.7275C10.7792 13.0087 10.3977 13.167 9.99994 13.167H1.99994C1.6022 13.167 1.22067 13.0087 0.939392 12.7275C0.658163 12.4463 0.500024 12.0647 0.499939 11.667V5.83594Z" fill="#737373" stroke="#737373"/>
</svg>
