<svg width="12" height="15" viewBox="0 0 12 15" fill="none" xmlns="http://www.w3.org/2000/svg">
<path d="M5.99994 1.66797C5.71682 1.66798 5.44321 1.77032 5.23041 1.95703L1.23041 5.45703V5.45801C1.10596 5.56734 1.00583 5.70167 0.937439 5.85254C0.869058 6.0034 0.833156 6.16737 0.832947 6.33301V12.167C0.833032 12.4761 0.956251 12.7725 1.17474 12.9912C1.39352 13.21 1.69054 13.333 1.99994 13.333H3.83295V9.5C3.83295 9.10227 3.99122 8.72074 4.2724 8.43945C4.55361 8.15824 4.93526 8.0001 5.33295 8H6.66693C7.06466 8.00007 7.44624 8.15821 7.72748 8.43945C8.0087 8.72074 8.16693 9.10224 8.16693 9.5V13.333H9.99994C10.3094 13.333 10.6063 13.21 10.8251 12.9912C11.0437 12.7725 11.1668 12.4762 11.1669 12.167V6.33301L11.1601 6.20898C11.1468 6.08598 11.1137 5.96569 11.0624 5.85254C10.9941 5.70183 10.8947 5.56727 10.7704 5.45801L10.7695 5.45703L6.76947 1.95703C6.55666 1.77034 6.28305 1.66797 5.99994 1.66797ZM5.33295 8.33301C5.02381 8.33311 4.7274 8.45629 4.50873 8.6748C4.28994 8.8936 4.16693 9.19058 4.16693 9.5V13.333H7.83295V9.5C7.83295 9.19058 7.70994 8.8936 7.49115 8.6748C7.27245 8.4563 6.97609 8.33308 6.66693 8.33301H5.33295ZM0.499939 6.33594C0.498259 6.12291 0.541667 5.91161 0.627869 5.7168C0.714074 5.52204 0.841186 5.34804 0.999939 5.20605L0.998962 5.20508L4.99603 1.70312L4.99994 1.69922C5.27493 1.45327 5.63101 1.3174 5.99994 1.31738C6.36886 1.31738 6.72494 1.4533 6.99994 1.69922L7.00385 1.70312L10.9999 5.20508V5.20605C11.1581 5.34753 11.2848 5.52091 11.371 5.71484C11.4572 5.90875 11.5009 6.11887 11.4999 6.33105V12.167C11.4999 12.5647 11.3417 12.9463 11.0605 13.2275C10.7792 13.5087 10.3977 13.667 9.99994 13.667H1.99994C1.6022 13.667 1.22067 13.5087 0.939392 13.2275C0.658163 12.9463 0.500024 12.5647 0.499939 12.167V6.33594Z" fill="black" stroke="#F5AF00"/>
</svg>
