<svg width="20" height="20" viewBox="0 0 20 20" fill="none" xmlns="http://www.w3.org/2000/svg">
<path d="M11.6665 9.59077H13.6832C13.7928 9.5914 13.9016 9.57038 14.0031 9.52891C14.1046 9.48744 14.197 9.42634 14.2748 9.3491L18.0915 5.53244C18.1696 5.45497 18.2316 5.3628 18.2739 5.26125C18.3162 5.1597 18.338 5.05078 18.338 4.94077C18.338 4.83076 18.3162 4.72184 18.2739 4.62029C18.2316 4.51874 18.1696 4.42657 18.0915 4.3491L16.0748 2.33244C15.9974 2.25433 15.9052 2.19233 15.8037 2.15003C15.7021 2.10772 15.5932 2.08594 15.4832 2.08594C15.3732 2.08594 15.2642 2.10772 15.1627 2.15003C15.0611 2.19233 14.969 2.25433 14.8915 2.33244L11.0748 6.1491C10.9226 6.3088 10.8362 6.52013 10.8332 6.74077V8.75744C10.8332 8.97845 10.921 9.19041 11.0772 9.34669C11.2335 9.50297 11.4455 9.59077 11.6665 9.59077ZM12.4998 7.09077L15.4832 4.10744L16.3165 4.94077L13.3332 7.9241H12.4998V7.09077ZM17.4998 8.75744C17.2788 8.75744 17.0669 8.84523 16.9106 9.00151C16.7543 9.15779 16.6665 9.36976 16.6665 9.59077V15.4241C16.6665 15.6451 16.5787 15.8571 16.4224 16.0134C16.2661 16.1696 16.0542 16.2574 15.8332 16.2574H4.1665C3.94549 16.2574 3.73353 16.1696 3.57725 16.0134C3.42097 15.8571 3.33317 15.6451 3.33317 15.4241V7.41577L8.23317 12.3241C8.46572 12.5597 8.74275 12.7467 9.04816 12.8744C9.35358 13.0021 9.68131 13.0678 10.0123 13.0678C10.3434 13.0678 10.6711 13.0021 10.9765 12.8744C11.2819 12.7467 11.559 12.5597 11.7915 12.3241C11.9442 12.1683 12.0297 11.9589 12.0297 11.7408C12.0297 11.5226 11.9442 11.3132 11.7915 11.1574C11.7139 11.0781 11.6212 11.015 11.5189 10.9719C11.4166 10.9289 11.3067 10.9067 11.1957 10.9067C11.0847 10.9067 10.9748 10.9289 10.8725 10.9719C10.7701 11.015 10.6774 11.0781 10.5998 11.1574C10.4441 11.3101 10.2346 11.3956 10.0165 11.3956C9.79838 11.3956 9.58894 11.3101 9.43317 11.1574L4.50817 6.24077H8.33317C8.55418 6.24077 8.76615 6.15297 8.92243 5.99669C9.07871 5.84041 9.1665 5.62845 9.1665 5.40744C9.1665 5.18642 9.07871 4.97446 8.92243 4.81818C8.76615 4.6619 8.55418 4.5741 8.33317 4.5741H4.1665C3.50346 4.5741 2.86758 4.83749 2.39874 5.30634C1.9299 5.77518 1.6665 6.41106 1.6665 7.0741V15.4074C1.6665 16.0705 1.9299 16.7064 2.39874 17.1752C2.86758 17.644 3.50346 17.9074 4.1665 17.9074H15.8332C16.4962 17.9074 17.1321 17.644 17.6009 17.1752C18.0698 16.7064 18.3332 16.0705 18.3332 15.4074V9.5741C18.3332 9.35309 18.2454 9.14113 18.0891 8.98485C17.9328 8.82857 17.7209 8.74077 17.4998 8.74077V8.75744Z" fill="#CF6D16"/>
</svg>
