<svg width="20" height="20" viewBox="0 0 20 20" fill="none" xmlns="http://www.w3.org/2000/svg">
<path d="M16.6593 1.67188C16.5499 1.67181 16.4415 1.69332 16.3404 1.73518C16.2392 1.77704 16.1473 1.83842 16.0699 1.91581C15.9926 1.99321 15.9312 2.0851 15.8893 2.18623C15.8475 2.28736 15.8259 2.39576 15.826 2.50521V3.03581C15.1232 3.90723 14.2349 4.61097 13.2258 5.09581C12.2167 5.58065 11.1122 5.83438 9.99268 5.83854H4.99268C4.32986 5.83926 3.69439 6.10289 3.22571 6.57157C2.75702 7.04026 2.4934 7.67572 2.49268 8.33854V10.0052C2.4934 10.668 2.75702 11.3035 3.22571 11.7722C3.69439 12.2409 4.32986 12.5045 4.99268 12.5052H5.39583L3.39356 17.1772C3.33915 17.3039 3.31706 17.4422 3.32927 17.5795C3.34148 17.7169 3.38762 17.8491 3.46354 17.9642C3.53945 18.0793 3.64277 18.1738 3.76422 18.2391C3.88566 18.3045 4.02144 18.3386 4.15934 18.3385H7.49268C7.6558 18.3386 7.81536 18.2908 7.95151 18.2009C8.08767 18.1111 8.19441 17.9832 8.25847 17.8332L10.5283 12.5369C11.5538 12.6122 12.553 12.8969 13.4642 13.3735C14.3754 13.8501 15.1792 14.5084 15.826 15.3078V15.8385C15.826 16.0596 15.9138 16.2715 16.0701 16.4278C16.2264 16.5841 16.4383 16.6719 16.6593 16.6719C16.8804 16.6719 17.0923 16.5841 17.2486 16.4278C17.4049 16.2715 17.4927 16.0596 17.4927 15.8385V2.50521C17.4927 2.39576 17.4712 2.28736 17.4294 2.18623C17.3875 2.0851 17.3261 1.99321 17.2487 1.91581C17.1713 1.83842 17.0795 1.77704 16.9783 1.73518C16.8772 1.69332 16.7688 1.67181 16.6593 1.67188ZM4.99268 10.8385C4.77171 10.8384 4.55983 10.7505 4.40358 10.5943C4.24734 10.4381 4.15949 10.2262 4.15934 10.0052V8.33854C4.15949 8.11757 4.24734 7.9057 4.40359 7.74945C4.55983 7.5932 4.77171 7.50536 4.99268 7.50521H5.82601V10.8385H4.99268ZM6.94336 16.6719H5.42318L7.20866 12.5052H8.72884L6.94336 16.6719ZM15.826 12.94C14.1829 11.5864 12.1216 10.8438 9.99268 10.8385H7.49268V7.50517H9.99268C12.1216 7.49973 14.1829 6.75696 15.826 5.40322V12.94Z" fill="#999999"/>
</svg>
