<svg width="20" height="20" viewBox="0 0 20 20" fill="none" xmlns="http://www.w3.org/2000/svg">
<path d="M15.0002 10.9807V8.33073C14.999 7.15 14.58 6.00779 13.8173 5.10637C13.0547 4.20496 11.9977 3.60252 10.8335 3.40573V2.4974C10.8335 2.27638 10.7457 2.06442 10.5894 1.90814C10.4331 1.75186 10.2212 1.66406 10.0002 1.66406C9.77915 1.66406 9.56719 1.75186 9.41091 1.90814C9.25463 2.06442 9.16683 2.27638 9.16683 2.4974V3.40573C8.00261 3.60252 6.9456 4.20496 6.18298 5.10637C5.42037 6.00779 5.00136 7.15 5.00016 8.33073V10.9807C4.51387 11.1527 4.09266 11.4708 3.79428 11.8915C3.49589 12.3122 3.33495 12.8149 3.3335 13.3307V14.9974C3.3335 15.2184 3.42129 15.4304 3.57757 15.5867C3.73385 15.7429 3.94582 15.8307 4.16683 15.8307H6.7835C6.9754 16.5369 7.39433 17.1602 7.97566 17.6047C8.55699 18.0491 9.26841 18.2899 10.0002 18.2899C10.7319 18.2899 11.4433 18.0491 12.0247 17.6047C12.606 17.1602 13.0249 16.5369 13.2168 15.8307H15.8335C16.0545 15.8307 16.2665 15.7429 16.4228 15.5867C16.579 15.4304 16.6668 15.2184 16.6668 14.9974V13.3307C16.6654 12.8149 16.5044 12.3122 16.206 11.8915C15.9077 11.4708 15.4865 11.1527 15.0002 10.9807ZM6.66683 8.33073C6.66683 7.44667 7.01802 6.59883 7.64314 5.97371C8.26826 5.34859 9.11611 4.9974 10.0002 4.9974C10.8842 4.9974 11.7321 5.34859 12.3572 5.97371C12.9823 6.59883 13.3335 7.44667 13.3335 8.33073V10.8307H6.66683V8.33073ZM10.0002 16.6641C9.70931 16.6623 9.42397 16.5845 9.17252 16.4383C8.92107 16.2921 8.71225 16.0826 8.56683 15.8307H11.4335C11.2881 16.0826 11.0793 16.2921 10.8278 16.4383C10.5764 16.5845 10.291 16.6623 10.0002 16.6641ZM15.0002 14.1641H5.00016V13.3307C5.00016 13.1097 5.08796 12.8978 5.24424 12.7415C5.40052 12.5852 5.61248 12.4974 5.8335 12.4974H14.1668C14.3878 12.4974 14.5998 12.5852 14.7561 12.7415C14.9124 12.8978 15.0002 13.1097 15.0002 13.3307V14.1641Z" fill="#999999"/>
</svg>
