<svg width="14" height="14" viewBox="0 0 14 14" fill="none" xmlns="http://www.w3.org/2000/svg">
<path d="M2.33331 0.833328H11.6663C11.7105 0.833328 11.7532 0.8509 11.7845 0.882156C11.8157 0.913412 11.8333 0.956116 11.8333 1.00032V12.8333H13.0003C13.0443 12.8334 13.0863 12.8511 13.1175 12.8822C13.1487 12.9134 13.1663 12.9561 13.1663 13.0003C13.1662 13.0444 13.1487 13.0863 13.1175 13.1175C13.0863 13.1487 13.0444 13.1662 13.0003 13.1663H1.00031C0.956101 13.1663 0.913396 13.1488 0.882141 13.1175C0.851065 13.0863 0.833399 13.0443 0.833313 13.0003C0.833313 12.9561 0.850886 12.9134 0.882141 12.8822C0.913398 12.8509 0.956103 12.8333 1.00031 12.8333H2.16632V1.00032C2.16632 0.956194 2.18399 0.913397 2.21515 0.882156C2.23084 0.866462 2.24971 0.854322 2.26984 0.846024L2.33331 0.833328ZM2.50031 12.8333H5.50031V9.00032C5.50031 8.95612 5.51788 8.91341 5.54913 8.88216C5.5803 8.85108 5.62231 8.83341 5.66632 8.83333H8.33331C8.37752 8.83333 8.42022 8.8509 8.45148 8.88216C8.48263 8.9134 8.50031 8.95619 8.50031 9.00032V12.8333H11.5003V1.16634H2.50031V12.8333ZM5.83331 12.8333H8.16632V9.16634H5.83331V12.8333ZM5.00031 6.16634H5.66632C5.71045 6.16634 5.75324 6.18401 5.78448 6.21516C5.81574 6.24642 5.83331 6.28913 5.83331 6.33333C5.83331 6.37753 5.81574 6.42024 5.78448 6.45149C5.75324 6.48265 5.71045 6.50032 5.66632 6.50032H5.00031C4.95618 6.50032 4.91338 6.48265 4.88214 6.45149C4.85088 6.42024 4.83331 6.37753 4.83331 6.33333C4.83331 6.28913 4.85088 6.24642 4.88214 6.21516C4.91338 6.18401 4.95618 6.16634 5.00031 6.16634ZM8.33331 6.16634H9.00031C9.04424 6.16642 9.08635 6.18419 9.11749 6.21516C9.14875 6.24642 9.16632 6.28913 9.16632 6.33333C9.16632 6.37753 9.14875 6.42024 9.11749 6.45149C9.08635 6.48247 9.04424 6.50024 9.00031 6.50032H8.33331C8.28911 6.50032 8.24641 6.48275 8.21515 6.45149C8.18389 6.42024 8.16632 6.37753 8.16632 6.33333C8.16632 6.28913 8.18389 6.24642 8.21515 6.21516C8.24641 6.18391 8.28911 6.16634 8.33331 6.16634ZM5.00031 3.50032H5.66632C5.71052 3.50032 5.75323 3.51789 5.78448 3.54915C5.81556 3.58031 5.83323 3.62233 5.83331 3.66634C5.83331 3.71054 5.81574 3.75324 5.78448 3.7845C5.75323 3.81576 5.71052 3.83333 5.66632 3.83333H5.00031C4.9561 3.83333 4.9134 3.81576 4.88214 3.7845C4.85088 3.75324 4.83331 3.71054 4.83331 3.66634C4.8334 3.62233 4.85106 3.58031 4.88214 3.54915C4.9134 3.51789 4.9561 3.50032 5.00031 3.50032ZM8.33331 3.50032H9.00031C9.04439 3.50041 9.08631 3.51797 9.11749 3.54915C9.14867 3.58033 9.16623 3.62225 9.16632 3.66634C9.16632 3.71054 9.14875 3.75324 9.11749 3.7845C9.08633 3.81558 9.04431 3.83324 9.00031 3.83333H8.33331C8.28911 3.83333 8.24641 3.81576 8.21515 3.7845C8.18399 3.75326 8.16632 3.71046 8.16632 3.66634C8.16641 3.6224 8.18417 3.5803 8.21515 3.54915C8.24641 3.51789 8.28911 3.50032 8.33331 3.50032Z" fill="black" stroke="#737373"/>
</svg>
