<svg width="14" height="15" viewBox="0 0 14 15" fill="none" xmlns="http://www.w3.org/2000/svg">
<path d="M2.33334 1.33334H11.6664C11.7106 1.33334 11.7533 1.35092 11.7845 1.38217C11.8158 1.41343 11.8333 1.45613 11.8333 1.50034V13.3333H13.0003C13.0443 13.3334 13.0864 13.3511 13.1175 13.3822C13.1488 13.4134 13.1664 13.4561 13.1664 13.5003C13.1663 13.5444 13.1487 13.5863 13.1175 13.6175C13.0863 13.6487 13.0444 13.6663 13.0003 13.6664H1.00034C0.956132 13.6664 0.913426 13.6488 0.882172 13.6175C0.851095 13.5864 0.833429 13.5443 0.833344 13.5003C0.833344 13.4561 0.850917 13.4134 0.882172 13.3822C0.913428 13.3509 0.956133 13.3333 1.00034 13.3333H2.16635V1.50034C2.16635 1.45621 2.18402 1.41341 2.21518 1.38217C2.23087 1.36648 2.24974 1.35434 2.26987 1.34604L2.33334 1.33334ZM2.50034 13.3333H5.50034V9.50034C5.50034 9.45613 5.51791 9.41343 5.54916 9.38217C5.58033 9.35109 5.62234 9.33343 5.66635 9.33334H8.33334C8.37755 9.33334 8.42025 9.35091 8.45151 9.38217C8.48266 9.41341 8.50034 9.45621 8.50034 9.50034V13.3333H11.5003V1.66635H2.50034V13.3333ZM5.83334 13.3333H8.16635V9.66635H5.83334V13.3333ZM5.00034 6.66635H5.66635C5.71048 6.66635 5.75327 6.68402 5.78452 6.71518C5.81577 6.74644 5.83334 6.78914 5.83334 6.83334C5.83334 6.87755 5.81577 6.92025 5.78452 6.95151C5.75327 6.98266 5.71048 7.00034 5.66635 7.00034H5.00034C4.95621 7.00034 4.91341 6.98266 4.88217 6.95151C4.85092 6.92025 4.83334 6.87755 4.83334 6.83334C4.83334 6.78914 4.85091 6.74644 4.88217 6.71518C4.91341 6.68402 4.95621 6.66635 5.00034 6.66635ZM8.33334 6.66635H9.00034C9.04427 6.66644 9.08638 6.6842 9.11752 6.71518C9.14878 6.74644 9.16635 6.78914 9.16635 6.83334C9.16635 6.87755 9.14878 6.92025 9.11752 6.95151C9.08638 6.98248 9.04427 7.00025 9.00034 7.00034H8.33334C8.28914 7.00034 8.24644 6.98276 8.21518 6.95151C8.18392 6.92025 8.16635 6.87755 8.16635 6.83334C8.16635 6.78914 8.18392 6.74644 8.21518 6.71518C8.24644 6.68392 8.28914 6.66635 8.33334 6.66635ZM5.00034 4.00034H5.66635C5.71055 4.00034 5.75326 4.01791 5.78452 4.04916C5.81559 4.08033 5.83326 4.12234 5.83334 4.16635C5.83334 4.21055 5.81577 4.25326 5.78452 4.28452C5.75326 4.31577 5.71055 4.33334 5.66635 4.33334H5.00034C4.95613 4.33334 4.91343 4.31577 4.88217 4.28452C4.85092 4.25326 4.83334 4.21055 4.83334 4.16635C4.83343 4.12234 4.85109 4.08033 4.88217 4.04916C4.91343 4.01791 4.95613 4.00034 5.00034 4.00034ZM8.33334 4.00034H9.00034C9.04442 4.00042 9.08634 4.01798 9.11752 4.04916C9.1487 4.08034 9.16627 4.12227 9.16635 4.16635C9.16635 4.21055 9.14878 4.25326 9.11752 4.28452C9.08636 4.31559 9.04434 4.33326 9.00034 4.33334H8.33334C8.28914 4.33334 8.24644 4.31577 8.21518 4.28452C8.18402 4.25327 8.16635 4.21048 8.16635 4.16635C8.16644 4.12242 8.1842 4.08031 8.21518 4.04916C8.24644 4.01791 8.28914 4.00034 8.33334 4.00034Z" fill="black" stroke="#F5AF00"/>
</svg>
